<svg width="36" height="36" viewBox="0 0 36 36" fill="none" xmlns="http://www.w3.org/2000/svg">
<path fill-rule="evenodd" clip-rule="evenodd" d="M3.15708 15.2617C3.27566 14.5308 3.45352 13.7998 3.67585 13.0981C3.4387 13.7998 3.26083 14.5162 3.15708 15.2617ZM0 17.5422V19.0041H0.0592879C0.014822 18.5217 0 18.0393 0 17.5422Z" fill="white"/>
<path fill-rule="evenodd" clip-rule="evenodd" d="M17.7864 0C8.46334 0 0.815208 7.07543 0.0592879 16.0805H0V17.5424C0 18.0394 0.014822 18.5218 0.0592879 19.0043C0.815208 28.0094 8.46334 35.0848 17.7864 35.0848C27.6133 35.0848 35.5727 27.2346 35.5727 17.5424C35.5727 7.85022 27.6133 0 17.7864 0ZM3.12744 15.3935C3.14226 15.3496 3.14226 15.3057 3.15708 15.2619C3.26083 14.5163 3.4387 13.8 3.67585 13.0983C3.89818 12.382 4.1798 11.6803 4.53552 11.0225C4.68374 10.7009 4.86161 10.3793 5.05429 10.0723C5.21733 9.80912 5.38037 9.54599 5.55824 9.28285C5.66199 9.12205 5.78057 8.96124 5.91397 8.80044C6.04736 8.61039 6.19558 8.42035 6.3438 8.23031C7.9594 6.3445 10.0197 4.8534 12.3615 3.94704C8.78943 6.82692 6.41791 11.2418 6.0029 16.0805H3.0385C3.06815 15.8466 3.08297 15.6127 3.12744 15.3935ZM4.03158 23.0244C3.913 22.7613 3.82407 22.4981 3.73514 22.2204C3.63138 21.9572 3.55727 21.6795 3.48316 21.4017C3.39423 21.1094 3.27566 20.7877 3.23119 20.4807C3.12744 19.9983 2.96439 19.5159 2.96439 19.0335V19.0043H5.98808C6.35862 23.843 8.73014 28.1848 12.2726 31.1085C10.4229 30.3693 8.74122 29.2736 7.32616 27.8855C5.9111 26.4973 4.79104 24.8447 4.03158 23.0244ZM16.2152 30.0852C14.2119 28.9283 12.5131 27.3222 11.2564 25.397C9.99979 23.4718 9.22064 21.2818 8.98211 19.0043H16.2893L16.2152 30.0852ZM16.3042 16.0805H8.96729C9.42677 11.2271 12.2874 7.01696 16.3783 4.70721L16.3042 16.0805ZM30.0293 9.29747C30.2516 9.58984 30.4443 9.88222 30.6074 10.1892C30.7852 10.4816 30.9483 10.774 31.0965 11.0809C31.2002 11.3148 31.304 11.5341 31.4078 11.768C31.5115 12.0165 31.6153 12.2651 31.7042 12.5136C31.7931 12.7329 31.8672 12.9668 31.9413 13.2007C32.0451 13.5223 32.134 13.8293 32.2081 14.1509C32.2674 14.3994 32.3267 14.6625 32.3712 14.9257C32.4156 15.1888 32.4601 15.4665 32.4898 15.7297C32.5046 15.8466 32.5194 15.9636 32.5194 16.0805H29.5698C29.1696 11.154 26.6944 6.78306 23.0037 3.85933C25.8643 4.91187 28.31 6.84154 30.0293 9.29747ZM19.3427 4.79492C23.3446 7.11929 26.1608 11.2856 26.6054 16.0805H19.2686L19.3427 4.79492ZM19.1796 30.2168L19.2537 19.0043H26.5906C26.0867 23.7992 23.226 27.9509 19.1796 30.2168ZM32.4898 19.3551C32.4601 19.6182 32.4156 19.896 32.3712 20.1591C32.3267 20.4223 32.2674 20.6854 32.2081 20.9339C32.134 21.2555 32.0451 21.5625 31.9413 21.8841C31.8672 22.118 31.7931 22.3519 31.7042 22.5712C31.6153 22.8197 31.5115 23.0683 31.4078 23.3168C31.304 23.5507 31.2002 23.7699 31.0965 24.0038C29.4216 27.3077 26.5313 29.9244 23.0037 31.2255C26.6944 28.3017 29.1696 23.9308 29.5698 19.0043H32.5194C32.5194 19.1212 32.5046 19.2382 32.4898 19.3551Z" fill="white"/>
<path fill-rule="evenodd" clip-rule="evenodd" d="M0.0592879 19.0048H0V17.543C0 18.04 0.014822 18.5224 0.0592879 19.0048Z" fill="white"/>
</svg>
