<svg width="37" height="37" viewBox="0 0 37 37" fill="none" xmlns="http://www.w3.org/2000/svg">
<path fill-rule="evenodd" clip-rule="evenodd" d="M11.1927 1.04861C13.0899 0.962847 13.6947 0.943359 18.5256 0.943359C23.3575 0.943359 23.9613 0.96382 25.8575 1.04861C27.7517 1.13341 29.0453 1.43066 30.1767 1.86434C31.3633 2.30498 32.4383 2.9954 33.3268 3.88756C34.2315 4.76377 34.9316 5.82407 35.3782 6.99451C35.8178 8.1104 36.1183 9.38613 36.2053 11.2534C36.2923 13.1246 36.312 13.721 36.312 18.4858C36.312 23.2504 36.2913 23.8469 36.2053 25.7182C36.1192 27.5853 35.8178 28.8611 35.3782 29.977C34.9237 31.13 34.3149 32.1093 33.3268 33.0839C32.4384 33.9762 31.3633 34.6667 30.1767 35.1072C29.0453 35.5408 27.7517 35.8371 25.8586 35.9229C23.9613 36.0087 23.3566 36.0282 18.5256 36.0282C13.6947 36.0282 13.0899 36.0077 11.1927 35.9229C9.29945 35.8381 8.00597 35.5408 6.87457 35.1072C5.7056 34.6589 4.71254 34.0585 3.72441 33.0839C2.81968 32.2077 2.11961 31.1474 1.67304 29.977C1.23333 28.8611 0.932935 27.5853 0.845976 25.7182C0.759017 23.8469 0.739258 23.2514 0.739258 18.4858C0.739258 13.7201 0.760003 13.1246 0.845976 11.2544C0.931949 9.38613 1.23333 8.1104 1.67304 6.99451C2.11982 5.82415 2.81984 4.7639 3.72441 3.88756C4.61279 2.99525 5.68783 2.30478 6.87457 1.86434C8.00597 1.43066 9.29945 1.13438 11.1927 1.04861ZM25.7133 4.20624C23.8378 4.12242 23.2746 4.10391 18.5256 4.10391C13.7767 4.10391 13.2134 4.12242 11.338 4.20624C9.60379 4.28421 8.6621 4.56976 8.03561 4.81048C7.20559 5.12819 6.6127 5.50827 5.99018 6.12226C5.36866 6.73624 4.98229 7.32099 4.66016 8.13963C4.41609 8.75752 4.12657 9.6863 4.04752 11.3967C3.96253 13.2464 3.94376 13.8019 3.94376 18.4858C3.94376 23.1696 3.96253 23.725 4.04752 25.5748C4.12657 27.2852 4.41609 28.214 4.66016 28.8319C4.9451 29.5939 5.39959 30.2832 5.99018 30.8493C6.56403 31.4317 7.26299 31.88 8.03561 32.161C8.6621 32.4018 9.60379 32.6873 11.338 32.7653C13.2134 32.8492 13.7757 32.8676 18.5256 32.8676C23.2756 32.8676 23.8378 32.8492 25.7133 32.7653C27.4474 32.6873 28.3891 32.4018 29.0157 32.161C29.8457 31.8433 30.4386 31.4633 31.0611 30.8493C31.6516 30.2833 32.1062 29.5939 32.3911 28.8319C32.6352 28.214 32.9247 27.2852 33.0037 25.5748C33.0888 23.725 33.1075 23.1696 33.1075 18.4858C33.1075 13.8019 33.0888 13.2464 33.0037 11.3967C32.9247 9.6863 32.6352 8.75752 32.3911 8.13963C32.069 7.32099 31.6836 6.73624 31.0611 6.12226C30.4386 5.50926 29.8457 5.12819 29.0157 4.81048C28.3891 4.56976 27.4474 4.28421 25.7133 4.20624ZM16.2546 23.8934C16.9747 24.1877 17.7463 24.339 18.5256 24.339C20.0997 24.339 21.6091 23.7223 22.7221 22.6246C23.8352 21.527 24.4604 20.0381 24.4604 18.4858C24.4604 16.9334 23.8352 15.4445 22.7221 14.3468C21.6091 13.2491 20.0997 12.6324 18.5256 12.6324C17.7463 12.6324 16.9747 12.7838 16.2546 13.078C15.5344 13.3721 14.8803 13.8033 14.3292 14.3468C13.7781 14.8904 13.3409 15.5356 13.0427 16.2458C12.7445 16.9559 12.591 17.7171 12.591 18.4858C12.591 19.2544 12.7445 20.0156 13.0427 20.7258C13.3409 21.4359 13.7781 22.0811 14.3292 22.6246C14.8803 23.1681 15.5344 23.5994 16.2546 23.8934ZM12.0612 12.1099C13.7757 10.4189 16.101 9.46895 18.5256 9.46895C20.9504 9.46895 23.2757 10.4189 24.9902 12.1099C26.7046 13.8009 27.6678 16.0944 27.6678 18.4858C27.6678 20.8771 26.7046 23.1705 24.9902 24.8616C23.2757 26.5525 20.9504 27.5025 18.5256 27.5025C16.101 27.5025 13.7757 26.5525 12.0612 24.8616C10.3467 23.1705 9.38348 20.8771 9.38348 18.4858C9.38348 16.0944 10.3467 13.8009 12.0612 12.1099ZM29.695 10.8124C30.1002 10.4126 30.3278 9.87051 30.3278 9.30523C30.3278 8.73993 30.1002 8.19781 29.695 7.7981C29.2896 7.39839 28.74 7.17383 28.1668 7.17383C27.5938 7.17383 27.044 7.39839 26.6388 7.7981C26.2334 8.19781 26.0058 8.73993 26.0058 9.30523C26.0058 9.87051 26.2334 10.4126 26.6388 10.8124C27.044 11.2121 27.5938 11.4366 28.1668 11.4366C28.74 11.4366 29.2896 11.2121 29.695 10.8124Z" fill="white"/>
</svg>
