<svg width="45" height="36" viewBox="0 0 45 36" fill="none" xmlns="http://www.w3.org/2000/svg">
<path d="M32.494 35.1883H12.1667C5.17412 35.1883 0.478516 30.5571 0.478516 23.6604V11.6314C0.478516 4.73471 5.17412 0.103516 12.1667 0.103516H32.494C39.4866 0.103516 44.1822 4.73471 44.1822 11.6314V23.6604C44.1822 30.5571 39.4866 35.1883 32.494 35.1883ZM12.1667 3.11078C6.92226 3.11078 3.52761 6.45888 3.52761 11.6314V23.6604C3.52761 28.833 6.92226 32.181 12.1667 32.181H32.494C37.7384 32.181 41.1331 28.833 41.1331 23.6604V11.6314C41.1331 6.45888 37.7384 3.11078 32.494 3.11078H12.1667Z" fill="white"/>
<path d="M19.4639 24.7234C18.8744 24.7234 18.3052 24.5831 17.7969 24.3024C16.618 23.6408 15.9268 22.2976 15.9268 20.6335V14.6992C15.9268 13.0352 16.5976 11.692 17.7969 11.0304C18.976 10.3688 20.5004 10.489 21.9436 11.3511L26.9647 14.3183C28.3469 15.1403 29.1395 16.3632 29.1395 17.6664C29.1395 18.9695 28.3469 20.1925 26.9647 21.0145L21.9436 23.9816C21.1102 24.4628 20.2566 24.7234 19.4639 24.7234ZM19.4639 13.5765C19.3826 13.5765 19.3214 13.5966 19.2807 13.6166C19.1384 13.6968 18.9758 14.0576 18.9758 14.6792V20.6135C18.9758 21.2149 19.1384 21.5758 19.2807 21.6761C19.4434 21.7563 19.8298 21.7162 20.3583 21.3954L25.3789 18.4282C25.8871 18.1275 26.0702 17.8268 26.0702 17.6463C26.0702 17.4659 25.8871 17.1852 25.3789 16.8644L20.3583 13.8973C19.9924 13.6767 19.6672 13.5765 19.4639 13.5765Z" fill="white"/>
</svg>
